# xmcd
#
# Track frame offsets: 
#        150
#        16697
#        31389
#        46471
#        59913
#        74076
#        88118
#        104267
#        122441
#        141451
#        157254
#        171218
#        185024
#        199126
#        230444
#        245457
#        266624
#
# Disc length: 3808 seconds
#
# Revision: 0
# Processed by: cddbd v1.5.2PL0 Copyright (c) Steve Scherf et al.
# Submitted via: ExactAudioCopy v1.0b3
#
DISCID=010ede11
DTITLE=Various Artist - 新宿盛り場これくしょん Disc1
DYEAR=2009
DGENRE=Japan-Pops
TTITLE0=藤圭子 - 新宿の女
TTITLE1=八代亜紀 - なみだ恋
TTITLE2=扇ひろ子 - 新宿ブルース
TTITLE3=美空ひばり - 新宿波止場
TTITLE4=緑川アコ - ふたたび夢は夜開く
TTITLE5=緑川アコ - 新宿仁義
TTITLE6=扇ひろ子 - 新宿ゴールデン街
TTITLE7=渚ようこ - 二日酔い
TTITLE8=高樹一郎 and 津山洋子 - 新宿そだち
TTITLE9=沖山秀子 - ダンチョネ節
TTITLE10=李礼仙 - 淋しい新宿
TTITLE11=カルーセル麻紀 - 新宿ふらふら
TTITLE12=都はるみ - 新宿二丁目・ほたる草
TTITLE13=松坂慶子 - ボン・ボヤージュ
TTITLE14=青江三奈 - 新宿サタデー・ナイト
TTITLE15=ダウン・タウン・ブギウギ・バンド - 新宿バックストリート
TTITLE16=原田芳 - Flower Top - 新宿心中
EXTD=
EXTT0=
EXTT1=
EXTT2=
EXTT3=
EXTT4=
EXTT5=
EXTT6=
EXTT7=
EXTT8=
EXTT9=
EXTT10=
EXTT11=
EXTT12=
EXTT13=
EXTT14=
EXTT15=
EXTT16=
PLAYORDER=
